<?xml version="1.0" encoding="UTF-8"?>
<svg width="24px" height="24px" viewBox="0 0 24 24" version="1.1" xmlns="http://www.w3.org/2000/svg" xmlns:xlink="http://www.w3.org/1999/xlink">
    <title>icon-dealer-website</title>
    <g id="VDP" stroke="none" stroke-width="1" fill="none" fill-rule="evenodd">
        <g id="UCL-&gt;-VDP-(Mobile)" transform="translate(-16.000000, -3799.000000)">
            <g id="Dealer-Info" transform="translate(0.000000, 3479.000000)">
                <g id="Group" transform="translate(16.000000, 128.000000)">
                    <g id="icon-dealer-website" transform="translate(0.000000, 192.000000)">
                        <rect id="Rectangle-6" x="0" y="0" width="24" height="24"></rect>
                        <path d="M18.4615385,0 C16.9818462,0 15.5924428,0.57675 14.5456726,1.62259615 L12.6995188,3.46875 C11.6536735,4.51551923 11.0769231,5.90492308 11.0769231,7.38461538 C11.0769231,8.55163292 11.4400652,9.659052 12.1045671,10.590144 L10.590144,12.1045671 C9.65894492,11.4403846 8.55092769,11.0769231 7.38461538,11.0769231 C5.90492308,11.0769231 4.51551923,11.6536735 3.46875,12.6995188 L1.62259615,14.5456726 C0.57675,15.5924428 0,16.9818462 0,18.4615385 C0,19.9412308 0.57675,21.3306342 1.62259615,22.3774043 C2.66844231,23.4241735 4.05876923,24 5.53846154,24 C7.01815385,24 8.40755815,23.4232495 9.45432738,22.3774043 L11.3004812,20.5312505 C12.3463265,19.4844812 12.9230769,18.0950769 12.9230769,16.6153846 C12.9230769,16.1067692 12.850428,15.610644 12.7193511,15.1334132 L11.0588945,16.7938698 C11.0164329,17.6791006 10.6690385,18.5511923 9.99519231,19.2259615 L8.14903846,21.0721154 C6.70903846,22.5121154 4.36696154,22.5121154 2.92788462,21.0721154 C1.48880769,19.6321154 1.48788462,17.2900385 2.92788462,15.8509615 L4.77403846,14.0048077 C5.49403846,13.2848077 6.4402644,12.9266825 7.38641815,12.9266825 C8.03420031,12.9266825 8.67566954,13.1069123 9.25060062,13.4441105 L6.7319712,15.9627406 C6.49082722,16.1942639 6.39368844,16.5380637 6.47801802,16.8615478 C6.5623476,17.1850319 6.81496809,17.4376524 7.13845223,17.5219819 C7.46193638,17.6063115 7.8057361,17.5091726 8.03725938,17.2680286 L17.2680286,8.03725938 C17.5410381,7.77188273 17.6231257,7.3661217 17.4747373,7.01549398 C17.3263488,6.66486627 16.9779253,6.441301 16.597356,6.45252406 C16.3575419,6.45966973 16.1299298,6.55989665 15.9627406,6.7319712 L13.4441105,9.25060062 C12.6122363,7.83541569 12.7912569,5.98681154 14.0048077,4.77403846 L15.8509615,2.92788462 C16.5709615,2.20788462 17.5153846,1.84975966 18.4615385,1.84975957 C19.4076923,1.84975957 20.3521154,2.20880769 21.0721154,2.92788462 C22.5121154,4.36788462 22.5121154,6.70996154 21.0721154,8.14903846 L19.2259615,9.99519231 C18.5521154,10.6690385 17.6791006,11.0164329 16.7938698,11.0588945 L15.1334132,12.7193511 C15.610644,12.850428 16.1067692,12.9230769 16.6153846,12.9230769 C18.0950769,12.9230769 19.4844803,12.3463265 20.5312505,11.3004812 L22.3774043,9.45432738 C23.4232495,8.40755723 24,7.01815385 24,5.53846154 C24,4.05876923 23.4232495,2.66936538 22.3774043,1.62259615 C21.3306351,0.57675 19.9412308,0 18.4615385,0 Z" id="Shape" fill="#212121"></path>
                    </g>
                </g>
            </g>
        </g>
    </g>
</svg>