<?xml version="1.0" encoding="UTF-8"?>
<svg width="24px" height="24px" viewBox="0 0 24 24" version="1.1" xmlns="http://www.w3.org/2000/svg" xmlns:xlink="http://www.w3.org/1999/xlink">
    <title>icon-dealer-inventory</title>
    <g id="VDP" stroke="none" stroke-width="1" fill="none" fill-rule="evenodd">
        <g id="UCL-&gt;-VDP-(Mobile)" transform="translate(-16.000000, -3751.000000)">
            <g id="Dealer-Info" transform="translate(0.000000, 3479.000000)">
                <g id="Group" transform="translate(16.000000, 128.000000)">
                    <g id="icon-dealer-inventory" transform="translate(0.000000, 144.000000)">
                        <rect id="Rectangle-6" x="0" y="0" width="24" height="24"></rect>
                        <path d="M0,2 L0,5.99762766 L3.99762766,5.99762766 L3.99762766,2 L0,2 Z M8.99466223,2.99940691 C8.63424021,2.99430965 8.29899371,3.18367286 8.11729517,3.49498567 C7.93559664,3.80629848 7.93559664,4.19132918 8.11729517,4.50264199 C8.29899371,4.8139548 8.63424021,5.00331801 8.99466223,4.99822074 L22.986359,4.99822074 C23.3467811,5.00331801 23.6820276,4.8139548 23.8637261,4.50264199 C24.0454246,4.19132918 24.0454246,3.80629848 23.8637261,3.49498567 C23.6820276,3.18367286 23.3467811,2.99430965 22.986359,2.99940691 L8.99466223,2.99940691 Z M0,9.99525532 L0,13.992883 L3.99762766,13.992883 L3.99762766,9.99525532 L0,9.99525532 Z M8.99466223,10.9946622 C8.63424021,10.989565 8.29899371,11.1789282 8.11729517,11.490241 C7.93559664,11.8015538 7.93559664,12.1865845 8.11729517,12.4978973 C8.29899371,12.8092101 8.63424021,12.9985733 8.99466223,12.9934761 L22.986359,12.9934761 C23.3467811,12.9985733 23.6820276,12.8092101 23.8637261,12.4978973 C24.0454246,12.1865845 24.0454246,11.8015538 23.8637261,11.490241 C23.6820276,11.1789282 23.3467811,10.989565 22.986359,10.9946622 L8.99466223,10.9946622 Z M0,17.9905106 L0,21.9881383 L3.99762766,21.9881383 L3.99762766,17.9905106 L0,17.9905106 Z M8.99466223,18.9899176 C8.63424021,18.9848203 8.29899371,19.1741835 8.11729517,19.4854963 C7.93559664,19.7968091 7.93559664,20.1818398 8.11729517,20.4931526 C8.29899371,20.8044654 8.63424021,20.9938286 8.99466223,20.9887314 L22.986359,20.9887314 C23.3467811,20.9938286 23.6820276,20.8044654 23.8637261,20.4931526 C24.0454246,20.1818398 24.0454246,19.7968091 23.8637261,19.4854963 C23.6820276,19.1741835 23.3467811,18.9848203 22.986359,18.9899176 L8.99466223,18.9899176 Z" id="Shape" fill="#212121"></path>
                    </g>
                </g>
            </g>
        </g>
    </g>
</svg>