<?xml version="1.0" encoding="UTF-8"?>
<svg width="24px" height="24px" viewBox="0 0 24 24" version="1.1" xmlns="http://www.w3.org/2000/svg" xmlns:xlink="http://www.w3.org/1999/xlink">
    <title>icon-dealer-hours</title>
    <g id="VDP" stroke="none" stroke-width="1" fill="none" fill-rule="evenodd">
        <g id="UCL-&gt;-VDP-(Mobile)" transform="translate(-16.000000, -3847.000000)">
            <g id="Dealer-Info" transform="translate(0.000000, 3479.000000)">
                <g id="Group" transform="translate(16.000000, 128.000000)">
                    <g id="icon-dealer-hours" transform="translate(0.000000, 240.000000)">
                        <rect id="Rectangle-6" x="0" y="0" width="24" height="24"></rect>
                        <path d="M12,0 C5.373,0 0,5.373 0,12 C0,18.627 5.373,24 12,24 C18.627,24 24,18.627 24,12 C24,5.373 18.627,0 12,0 Z M13,13 L4.995,13 C4.445,13 4,12.555 4,12.005 L4,11.994 C4,11.445 4.445,11 4.995,11 L11,11 L11,2.995 C11,2.445 11.445,2 11.995,2 L12.006,2 C12.555,2 13,2.445 13,2.995 L13,13 Z" id="Shape" fill="#212121"></path>
                    </g>
                </g>
            </g>
        </g>
    </g>
</svg>