<?xml version="1.0" encoding="UTF-8"?>
<svg width="24px" height="24px" viewBox="0 0 24 24" version="1.1" xmlns="http://www.w3.org/2000/svg" xmlns:xlink="http://www.w3.org/1999/xlink">
    <title>icon-location</title>
    <g id="VDP" stroke="none" stroke-width="1" fill="none" fill-rule="evenodd">
        <g id="UCL-&gt;-VDP-(Mobile)" transform="translate(-16.000000, -3607.000000)" fill="#212121">
            <g id="Dealer-Info" transform="translate(0.000000, 3479.000000)">
                <g id="icon-location" transform="translate(16.000000, 128.000000)">
                    <path d="M12,0 C7.92184615,0 4.61538462,3.30646154 4.61538462,7.38461538 C4.61538462,12.9230769 11.0769231,14.7692308 11.0769231,18.4615385 C11.0769231,18.9710769 11.4904615,19.3846154 12,19.3846154 C12.5095385,19.3846154 12.9230769,18.9710769 12.9230769,18.4615385 C12.9230769,14.7692308 19.3846154,12.9230769 19.3846154,7.38461538 C19.3846154,3.30646154 16.0781538,0 12,0 Z M12,5.53846154 C13.02,5.53846154 13.8461538,6.36461538 13.8461538,7.38461538 C13.8461538,8.40461538 13.02,9.23076923 12,9.23076923 C10.98,9.23076923 10.1538462,8.40461538 10.1538462,7.38461538 C10.1538462,6.36461538 10.98,5.53846154 12,5.53846154 Z M6.81310098,15.1911055 C2.97771637,15.8464902 0,17.2578462 0,19.3846154 C0,22.4141538 6.03692308,24 12,24 C17.9630769,24 24,22.4141538 24,19.3846154 C24,17.2578462 21.022284,15.8464902 17.1868994,15.1911055 C17.1121302,15.2658748 17.0363077,15.3399378 16.9615385,15.4128609 C16.4566154,15.9103994 15.9869132,16.3778363 15.6093748,16.8209132 C19.8666055,17.322144 22.1538462,18.6350769 22.1538462,19.3846154 C22.1538462,20.3252308 18.5695385,22.1538462 12,22.1538462 C5.43046154,22.1538462 1.84615385,20.3252308 1.84615385,19.3846154 C1.84615385,18.6350769 4.13339418,17.322144 8.39062523,16.8209132 C8.01216369,16.3778363 7.54246154,15.9103994 7.03846154,15.4128609 C6.96461538,15.3399378 6.88879329,15.2658748 6.81310098,15.1911055 Z" id="Shape"></path>
                </g>
            </g>
        </g>
    </g>
</svg>