<?xml version="1.0" encoding="UTF-8"?>
<svg width="24px" height="24px" viewBox="0 0 24 24" version="1.1" xmlns="http://www.w3.org/2000/svg" xmlns:xlink="http://www.w3.org/1999/xlink">
    <title>icon-phone-sm</title>
    <g id="VDP" stroke="none" stroke-width="1" fill="none" fill-rule="evenodd">
        <g id="UCL-&gt;-VDP-(Mobile)" transform="translate(-16.000000, -3655.000000)">
            <g id="Dealer-Info" transform="translate(0.000000, 3479.000000)">
                <g id="Group" transform="translate(16.000000, 128.000000)">
                    <g id="icon-phone-sm" transform="translate(0.000000, 48.000000)">
                        <rect id="Rectangle-6" x="0" y="0" width="24" height="24"></rect>
                        <path d="M17.9737871,15.5359532 C17.5501381,15.2876072 17.0294463,15.2928246 16.6078843,15.5432575 L14.4729437,16.815248 C13.9950342,17.1001154 13.3981691,17.0667244 12.9599115,16.7244661 C12.202352,16.1328183 10.982535,15.1373475 9.92132552,14.076138 C8.86011606,13.0149286 7.86464523,11.7951116 7.27299748,11.037552 C6.93073916,10.5992944 6.89734811,10.0024293 7.18221555,9.52451984 L8.45420605,7.38957927 C8.70568243,6.9680172 8.70776937,6.44315155 8.4594234,6.01950254 L5.32692505,0.668585985 C5.02327515,0.151024633 4.42014922,-0.103582161 3.83684923,0.0393732926 C3.27024476,0.177111394 2.53459808,0.513108885 1.76347341,1.28527703 C-0.651117253,3.69986769 -1.93354246,7.77253293 7.14673755,16.8528129 C16.2270176,25.9330929 20.2986393,24.6517112 22.7142735,22.2360771 C23.4874851,21.4628655 23.8224391,20.7261753 23.9612207,20.1585274 C24.1020892,19.5762709 23.8516563,18.9773188 23.3351384,18.6747124 C22.0454089,17.9202832 19.2635166,16.2914258 17.9737871,15.5359532 Z" id="Shape" fill="#212121"></path>
                    </g>
                </g>
            </g>
        </g>
    </g>
</svg>